<?xml version="1.0" encoding="UTF-8"?>
<svg id="Charte_graphique" data-name="Charte graphique" xmlns="http://www.w3.org/2000/svg" viewBox="0 0 498.29 108.07">
  <defs>
    <style>
      .cls-1 {
        fill: #e5c385;
      }

      .cls-2 {
        fill: #fff;
      }

      .cls-3 {
        fill: #e5c384;
      }

      .cls-4 {
        fill: #461d6c;
      }

      .cls-5 {
        fill: #b29ccb;
      }

      .cls-6 {
        fill: #6b3e91;
      }
    </style>
  </defs>
  <g id="logo_de_base" data-name="logo de base">
    <g>
      <g>
        <g>
          <path class="cls-3" d="m227.72,41.67l.71-10.2c.07-.96,1.13-1.5,1.94-.99l10.76,6.77c.92.58.73,1.98-.31,2.29l-11.47,3.43c-.85.25-1.69-.42-1.63-1.3Z"/>
          <path class="cls-4" d="m229.7,29.38c-.34,0-.67.08-.98.24-.69.35-1.13,1.02-1.18,1.78l-.71,10.2c-.05.71.25,1.4.81,1.85s1.3.59,1.98.38l11.47-3.43c.83-.25,1.41-.93,1.53-1.79s-.26-1.67-.99-2.13l-10.76-6.77c-.35-.22-.75-.34-1.15-.34Zm-.72,12.74c-.1,0-.18-.05-.23-.08-.06-.04-.15-.15-.14-.31h0l.71-10.2c.01-.18.13-.27.2-.3.07-.04.21-.08.36.02l10.76,6.77c.17.11.18.27.17.36-.01.09-.06.24-.26.3l-11.47,3.43s-.07.02-.11.02Z"/>
        </g>
        <path class="cls-4" d="m218.4,34.41c-1.44,0-2.84.54-3.9,1.52-1.18,1.08-1.85,2.62-1.85,4.22v10.51c0,.75.61,1.35,1.35,1.35s1.35-.61,1.35-1.35v-10.51c0-.86.35-1.65.98-2.24.63-.58,1.46-.86,2.31-.8l8.52.68c.73.06,1.4-.5,1.46-1.24.06-.74-.5-1.4-1.24-1.46l-8.52-.68c-.15-.01-.3-.02-.45-.02Z"/>
        <g>
          <path class="cls-3" d="m230.29,39l.28-3.89c.03-.36.47-.57.81-.37l4.49,2.59c.38.22.31.75-.13.87l-4.78,1.29c-.35.1-.7-.16-.68-.5Z"/>
          <path class="cls-4" d="m231.1,34.09c-.18,0-.37.04-.54.13-.33.17-.54.49-.56.85l-.29,3.88h0c-.02.34.11.66.38.88.28.23.67.31,1.02.22l4.78-1.29c.43-.12.74-.46.79-.89.06-.42-.15-.82-.53-1.04l-4.49-2.59c-.18-.1-.37-.15-.57-.15Zm-.23,4.84l.27-3.66,4.23,2.44-4.5,1.22Zm0,.11h0s0,0,0,0h0Z"/>
        </g>
      </g>
      <g>
        <g>
          <path class="cls-3" d="m399.57,95.78l.71,10.2c.07.96,1.13,1.5,1.94.99l10.76-6.77c.92-.58.73-1.98-.31-2.29l-11.47-3.43c-.85-.25-1.69.42-1.63,1.3Z"/>
          <path class="cls-4" d="m401.55,108.07c-.34,0-.67-.08-.98-.24-.69-.35-1.13-1.02-1.18-1.78l-.71-10.2c-.05-.71.25-1.4.81-1.85s1.3-.59,1.98-.38l11.47,3.43c.83.25,1.41.93,1.53,1.79s-.26,1.67-.99,2.13l-10.76,6.77c-.35.22-.75.34-1.15.34Zm-.72-12.74c-.1,0-.18.05-.23.08-.06.04-.15.15-.14.31h0l.71,10.2c.01.18.13.27.2.3.07.04.21.08.36-.02l10.76-6.77c.17-.11.18-.27.17-.36-.01-.09-.06-.24-.26-.3l-11.47-3.43s-.07-.02-.11-.02Z"/>
        </g>
        <path class="cls-4" d="m390.25,103.05c-1.44,0-2.84-.54-3.9-1.52-1.18-1.08-1.85-2.62-1.85-4.22v-10.51c0-.75.61-1.35,1.35-1.35s1.35.61,1.35,1.35v10.51c0,.86.35,1.65.98,2.24.63.58,1.46.86,2.31.8l8.52-.68c.73-.06,1.4.5,1.46,1.24.06.74-.5,1.4-1.24,1.46l-8.52.68c-.15.01-.3.02-.45.02Z"/>
        <g>
          <path class="cls-3" d="m402.14,98.45l.28,3.89c.03.36.47.57.81.37l4.49-2.59c.38-.22.31-.75-.13-.87l-4.78-1.29c-.35-.1-.7.16-.68.5Z"/>
          <path class="cls-4" d="m402.95,103.36c-.18,0-.37-.04-.54-.13-.33-.17-.54-.49-.56-.85l-.29-3.88h0c-.02-.34.11-.66.38-.88.28-.23.67-.31,1.02-.22l4.78,1.29c.43.12.74.46.79.89.06.42-.15.82-.53,1.04l-4.49,2.59c-.18.1-.37.15-.57.15Zm-.23-4.84l.27,3.66,4.23-2.44-4.5-1.22Zm0-.11h0s0,0,0,0h0Z"/>
        </g>
      </g>
    </g>
    <g>
      <path class="cls-6" d="m123.69,92.97h-9.99c-.48,0-.87-.15-1.16-.47-.29-.31-.43-.69-.43-1.13v-45.4c0-.44.14-.82.43-1.13.29-.31.67-.47,1.16-.47h9.99c.44,0,.81.16,1.12.47.31.31.46.69.46,1.13v45.4c0,.44-.15.82-.46,1.13-.31.31-.68.47-1.12.47Z"/>
      <path class="cls-6" d="m157.58,93.83c-3.55,0-6.87-.66-9.97-1.99-3.1-1.33-5.82-3.12-8.14-5.38-2.33-2.26-4.17-4.92-5.52-7.98-1.35-3.06-2.03-6.31-2.03-9.77s.68-6.71,2.03-9.77c1.35-3.06,3.19-5.73,5.52-8.01,2.33-2.28,5.04-4.09,8.14-5.42,3.1-1.33,6.42-1.99,9.97-1.99,4.87,0,9.12,1,12.73,2.99,3.61,1.99,6.55,4.74,8.81,8.24.22.36.28.76.17,1.23-.11.47-.34.81-.7,1.03l-7.98,5.12c-.35.22-.75.3-1.2.23-.44-.07-.82-.28-1.13-.63-1.37-1.68-2.91-3.03-4.62-4.05-1.71-1.02-3.73-1.53-6.08-1.53-1.68,0-3.27.34-4.75,1.03-1.48.69-2.78,1.61-3.89,2.76-1.11,1.15-1.98,2.49-2.63,4.02-.64,1.53-.96,3.11-.96,4.75s.32,3.28.96,4.79c.64,1.51,1.52,2.83,2.63,3.95,1.11,1.13,2.4,2.04,3.89,2.72,1.48.69,3.07,1.03,4.75,1.03s3.34-.31,4.99-.93c1.64-.62,2.95-1.64,3.92-3.06.22-.35.24-.68.07-.96-.18-.29-.49-.43-.93-.43h-7.64c-.44,0-.82-.15-1.13-.47-.31-.31-.47-.69-.47-1.13v-7.91c0-.44.15-.82.47-1.13.31-.31.69-.47,1.13-.47h22.86c.44,0,.83.14,1.16.43.33.29.52.68.56,1.16.09.75.13,1.67.13,2.76s-.07,2.2-.2,3.36c-.31,3.06-1.17,5.89-2.59,8.51-1.42,2.62-3.25,4.88-5.48,6.78-2.24,1.91-4.8,3.4-7.68,4.49-2.88,1.09-5.94,1.63-9.17,1.63Z"/>
      <path class="cls-6" d="m201.19,92.97h-9.99c-.48,0-.87-.15-1.16-.47-.29-.31-.43-.69-.43-1.13v-45.4c0-.44.14-.82.43-1.13.29-.31.67-.47,1.16-.47h9.99c.44,0,.81.16,1.12.47.31.31.46.69.46,1.13v45.4c0,.44-.16.82-.46,1.13-.31.31-.68.47-1.12.47Z"/>
      <path class="cls-6" d="m257.42,45.91v45.46c0,.44-.16.82-.46,1.13-.31.31-.69.47-1.13.47h-9.82c-.44,0-.91-.13-1.39-.4-.49-.27-.86-.57-1.13-.93l-17.31-24.39c-.27-.35-.54-.5-.83-.43-.29.07-.43.32-.43.76v23.79c0,.44-.16.82-.47,1.13-.31.31-.69.47-1.14.47h-9.95c-.45,0-.82-.15-1.14-.47-.31-.31-.47-.69-.47-1.13v-45.46c0-.44.15-.82.47-1.13.31-.31.69-.47,1.13-.47h9.97c.44,0,.91.12,1.4.37.49.24.86.54,1.13.9l17.28,24.39c.27.36.54.51.83.47.29-.04.43-.29.43-.73v-23.8c0-.44.16-.82.47-1.13.31-.31.69-.47,1.13-.47h9.84c.44,0,.82.16,1.13.47.31.31.47.69.47,1.13Z"/>
      <path class="cls-6" d="m281.74,45.85c.18-.4.48-.74.9-1.03.42-.29.87-.43,1.36-.43h9.31c.44,0,.87.14,1.3.43.42.29.72.63.9,1.03l19.41,45.2c.18.4.14.82-.1,1.26-.24.44-.72.66-1.43.66h-11.37c-.49,0-.94-.14-1.36-.43-.42-.29-.74-.63-.96-1.03l-1.79-3.99c-.22-.4-.54-.74-.96-1.03-.42-.29-.85-.43-1.3-.43h-14.02c-.49,0-.94.14-1.36.43-.42.29-.72.63-.9,1.03l-1.86,3.99c-.18.4-.48.74-.9,1.03-.42.29-.85.43-1.3.43h-11.43c-.22,0-.45-.04-.7-.13-.24-.09-.44-.22-.6-.4-.16-.18-.25-.4-.3-.66-.04-.27.02-.57.2-.93l19.28-45Zm3.92,28.91h5.92c.44,0,.76-.14.96-.43.2-.29.19-.63-.03-1.03-.44-1.11-.98-2.4-1.6-3.89-.62-1.48-1.2-2.87-1.73-4.15-.18-.4-.38-.6-.6-.6s-.42.2-.6.6l-3.32,8.04c-.18.4-.18.74,0,1.03.18.29.51.43,1,.43Z"/>
      <path class="cls-6" d="m365.29,45.91v45.46c0,.44-.16.82-.46,1.13-.31.31-.69.47-1.13.47h-9.82c-.44,0-.91-.13-1.39-.4-.49-.27-.86-.57-1.13-.93l-17.31-24.39c-.27-.35-.54-.5-.83-.43-.29.07-.43.32-.43.76v23.79c0,.44-.16.82-.47,1.13-.31.31-.69.47-1.14.47h-9.95c-.45,0-.82-.15-1.14-.47-.31-.31-.47-.69-.47-1.13v-45.46c0-.44.15-.82.47-1.13.31-.31.69-.47,1.13-.47h9.97c.44,0,.91.12,1.4.37.49.24.86.54,1.13.9l17.28,24.39c.27.36.54.51.83.47.29-.04.43-.29.43-.73v-23.8c0-.44.16-.82.47-1.13.31-.31.69-.47,1.13-.47h9.84c.44,0,.82.16,1.13.47.31.31.47.69.47,1.13Z"/>
      <path class="cls-6" d="m407.83,56.55h-9.31c-.44,0-.82.16-1.13.47-.31.31-.47.69-.47,1.13v33.23c0,.44-.14.82-.43,1.13-.29.31-.68.47-1.16.47h-9.97c-.44,0-.82-.15-1.13-.47-.31-.31-.47-.69-.47-1.13v-33.23c0-.44-.14-.82-.43-1.13-.29-.31-.68-.47-1.16-.47h-9.44c-.44,0-.82-.15-1.13-.47-.31-.31-.47-.69-.47-1.13v-9.04c0-.44.15-.82.47-1.13.31-.31.69-.47,1.13-.47h35.09c.49,0,.87.16,1.16.47.29.31.43.69.43,1.13v9.04c0,.44-.14.82-.43,1.13-.29.31-.68.47-1.16.47Z"/>
      <path class="cls-6" d="m427.64,58.14v2.79c0,.44.16.82.47,1.13.31.31.69.47,1.13.47h18.01c.44,0,.82.16,1.13.47.31.31.47.69.47,1.13v9.17c0,.44-.16.82-.47,1.13-.31.31-.69.47-1.13.47h-18.01c-.44,0-.82.16-1.13.47-.31.31-.47.69-.47,1.13v2.53c0,.44.16.82.47,1.13.31.31.69.47,1.13.47h20.67c.44,0,.82.16,1.13.47s.47.69.47,1.13v9.17c0,.44-.16.82-.47,1.13-.31.31-.69.47-1.13.47h-33.83c-.44,0-.82-.15-1.13-.47-.31-.31-.47-.69-.47-1.13v-45.46c0-.44.16-.82.47-1.13.31-.31.69-.47,1.13-.47h33.83c.44,0,.82.16,1.13.47.31.31.47.69.47,1.13v9.04c0,.44-.16.82-.47,1.13-.31.31-.69.47-1.13.47h-20.67c-.44,0-.82.16-1.13.47-.31.31-.47.69-.47,1.13Z"/>
      <path class="cls-6" d="m465.46,76.29c2.39,1.55,4.76,2.77,7.11,3.66,2.35.89,4.54,1.33,6.58,1.33s3.43-.28,4.45-.83c1.02-.55,1.53-1.38,1.53-2.49,0-.58-.22-1.03-.66-1.36-.44-.33-1.03-.61-1.76-.83-.73-.22-1.58-.4-2.56-.53-.98-.13-1.97-.31-2.99-.53-.98-.18-2.12-.39-3.42-.63-1.31-.24-2.65-.6-4.02-1.06-1.37-.47-2.74-1.05-4.09-1.76-1.35-.71-2.56-1.62-3.62-2.73-1.06-1.11-1.92-2.43-2.56-3.95-.64-1.53-.96-3.33-.96-5.42,0-3.06.6-5.58,1.79-7.58,1.2-1.99,2.71-3.58,4.55-4.75,1.84-1.17,3.89-1.99,6.15-2.46,2.26-.47,4.45-.7,6.58-.7,3.72,0,7.06.54,10,1.63,2.95,1.09,5.77,2.67,8.48,4.75.35.31.55.69.6,1.13.04.44-.07.84-.33,1.2l-5.18,7.38c-.27.36-.62.58-1.06.66-.44.09-.84,0-1.2-.27-2.26-1.42-4.36-2.43-6.31-3.02-1.95-.6-3.75-.9-5.38-.9-.49,0-1.05.01-1.69.03-.64.02-1.25.11-1.83.27-.58.16-1.05.41-1.43.76-.38.36-.56.84-.56,1.46s.47,1.17,1.4,1.66c.93.49,1.99.91,3.19,1.26,1.2.36,2.35.63,3.46.83,1.11.2,1.82.32,2.13.37,1.6.31,3.35.76,5.25,1.36,1.9.6,3.69,1.48,5.35,2.66,1.66,1.17,3.06,2.7,4.19,4.59,1.13,1.88,1.69,4.24,1.69,7.08,0,2.66-.47,4.95-1.4,6.88-.93,1.93-2.23,3.51-3.89,4.75-1.66,1.24-3.66,2.16-5.98,2.76-2.33.6-4.91.9-7.74.9-2.3,0-4.45-.19-6.45-.56-1.99-.38-3.86-.9-5.58-1.56-1.73-.66-3.33-1.45-4.82-2.36-1.49-.91-2.85-1.87-4.09-2.89-.36-.27-.55-.63-.6-1.1-.04-.47.07-.87.33-1.23l5.12-7.38c.27-.35.62-.58,1.06-.66.44-.09.84-.02,1.2.2Z"/>
    </g>
  </g>
  <g>
    <g>
      <g>
        <path class="cls-6" d="m84.72,73.82s-.66-5.54-10.5-2.35l-3.66-.65c-.68.9-1.43,1.68-2.24,2.34-1.84,1.5-3.92,2.52-6.22,3.05-2.31.54-4.53.81-6.69.81h-8.64c-.77,0-1.42-.27-1.96-.81-.54-.54-.81-1.19-.81-1.96v-8.17l-22.72-4.05-.1,33.42c0,.77.27,1.42.81,1.96.54.54,1.19.81,1.96.81h31.47c5.99,0,11.47-.88,16.42-2.65,4.96-1.77,9.84-4.32,13.69-7.78l-.81-13.98Z"/>
        <path class="cls-4" d="m55.42,99.33h-31.47c-1.07,0-1.99-.38-2.74-1.13-.75-.74-1.13-1.67-1.13-2.74l.1-33.42h2.2s-.1,33.43-.1,33.43c0,.47.15.85.48,1.18.33.33.71.49,1.18.49h31.47c5.84,0,11.24-.87,16.06-2.59,5.12-1.83,9.58-4.31,12.93-7.21l-.77-13.39c-.03-.17-.25-1.07-1.26-1.7-1.09-.67-3.32-1.17-7.8.28l-.68-2.09c4.28-1.39,7.55-1.39,9.71-.01,1.57,1,2.13,2.53,2.22,3.28l.85,14.57-.39.35c-3.6,3.24-8.46,6.01-14.05,8-5.05,1.8-10.7,2.71-16.79,2.71Z"/>
      </g>
      <g>
        <path class="cls-6" d="m27.09,13.48c-2.07.28-4.02,1.11-5.68,2.39-.73.57-1.51,1.22-2.2,1.91-18.62,18.55-3.97,48.39-3.97,48.39,0,0,4.25,16.37,29.57,10.05-.54-.54-.81-1.19-.81-1.96v-36.19c0-.77.27-1.42.81-1.96.54-.54,1.19-.81,1.96-.81h8.64c2.15,0,4.36.27,6.63.81,2.27.54,4.34,1.56,6.22,3.05,1.88,1.5,3.42,3.61,4.61,6.34,1.19,2.73,1.79,6.28,1.79,10.66s-.6,7.93-1.79,10.66c-1.19,2.73-2.71,4.84-4.55,6.34-.27.22-.55.42-.83.62,3.68-1.52,16.82-6.49,17.22.04.91,14.82-3.24,23.67-6.75,23.58-4.02-.1-3.68-5.17-3.3-7.53.12-.73.39-1.42.81-2.04l.68-1c.63-.92.17-2.22-.91-2.49-4.25-1.06-12.75,1-11.8,2.46.44.68.77,1.15,1.01,1.49.38.52.54,1.16.48,1.8-.36,3.82-.63,16.84,12.18,16.85,20.68.01,20.68-44.9,20.68-44.9C100.89,5.04,41.08,11.56,27.09,13.48Z"/>
        <path class="cls-4" d="m86.13,24.13c-16.34-15.04-44.1-13.81-59.19-11.74-2.25.31-4.4,1.21-6.2,2.61-.88.68-1.66,1.35-2.3,2C-.02,35.38,13.36,64.74,14.22,66.56c.4,1.28,4.27,12.19,19.96,12.19,3.14,0,6.75-.44,10.9-1.47.42-.11.84-.2,1.26-.3-.58-.08-1.1-.33-1.53-.77-.29-.29-.5-.62-.63-.98-3.88.94-7.23,1.34-10.13,1.34-14.69,0-17.6-10.17-17.74-10.68l-.08-.21c-.14-.29-14.09-29.35,3.76-47.12h0c.58-.58,1.28-1.19,2.09-1.82,1.5-1.16,3.28-1.91,5.15-2.17,14.71-2.02,41.72-3.25,57.4,11.18,8.87,8.17,12.94,20.36,12.08,36.29,0,.11-.03,11.26-2.56,22.24-2.27,9.84-7.06,21.56-17.01,21.56h0c-3.48,0-6.18-1.04-8.04-3.08-3.45-3.79-3.28-10.05-3.05-12.57.09-.91-.16-1.82-.69-2.54-.17-.24-.39-.55-.67-.97,1.48-.85,7.01-2.09,10.3-1.27.2.05.29.21.32.29.03.08.09.29-.06.5l-.68,1c-.51.75-.85,1.59-.99,2.48-.37,2.3-.48,5.44,1.09,7.31.78.94,1.92,1.46,3.28,1.49.77,0,1.9-.23,3.13-1.51,2.68-2.78,5.52-10.53,4.74-23.24-.09-1.53-.78-2.73-1.99-3.46-3.22-1.94-9.76-.13-13.97,1.38-.48.54-.99,1.04-1.53,1.48-1.02.83-2.12,1.51-3.29,2.05.88.04,1.37.08,1.39.08l.29.03.27-.12c4.59-2.06,12.9-4.7,15.7-3.02.59.35.88.9.93,1.71.69,11.22-1.57,18.92-4.13,21.58-.52.54-1.04.84-1.47.84,0,0-.01,0-.02,0-.73-.02-1.26-.24-1.64-.7-.8-.96-1.02-2.98-.6-5.56.09-.57.3-1.11.63-1.59l.68-1c.51-.74.62-1.69.3-2.53-.31-.82-1-1.44-1.85-1.65-3.93-.98-11.53.4-12.92,2.35-.4.56-.43,1.23-.07,1.78.45.7.79,1.19,1.05,1.54.21.29.31.67.28,1.05-.26,2.81-.43,9.82,3.61,14.25,2.29,2.52,5.55,3.8,9.67,3.8h0c9.02,0,15.65-8.06,19.16-23.3,2.58-11.22,2.61-22.59,2.61-22.64.89-16.56-3.41-29.34-12.79-37.97Z"/>
      </g>
      <path class="cls-2" d="m85.81,60.54s-5.44,1.09-8.63,7.21c0,0,15.88,13.6,34.7,3.88,0,0,11.57-7.94-1.8-5.74-13.37,2.21-19.13.77-24.28-5.35Z"/>
      <path class="cls-4" d="m117.46,65.65c-.84-1.56-3.44-1.72-8.97-.56-15.54,3.25-21.16-2.91-24.92-10.06-.28-.54-.95-.75-1.49-.46-.54.28-.74.95-.46,1.49,3.96,7.53,10.3,14.74,27.31,11.19,4.73-.99,6.16-.69,6.52-.54-.08.22-.36.78-1.38,1.79-2.09,2.07-4.78,3.58-7.79,4.37-16.11,4.2-26.68-3.4-32.33-9.67-.19.84-.41,1.62-.67,2.35,4.98,5.13,12.97,10.71,24.13,10.71,2.92,0,6.07-.38,9.43-1.26,3.38-.88,6.42-2.59,8.78-4.94,1.17-1.17,2.64-2.89,1.83-4.4Z"/>
      <path class="cls-4" d="m77.27,68.74c-.15,0-.31-.03-.46-.1-.55-.26-.79-.91-.54-1.46.13-.28,3.19-6.75,9.37-7.72.6-.09,1.16.32,1.26.92.09.6-.32,1.16-.92,1.26-5.03.79-7.68,6.41-7.71,6.47-.19.4-.58.64-1,.64Z"/>
      <path class="cls-4" d="m55.42,78.12h-8.64c-1.07,0-1.99-.38-2.74-1.13-.75-.75-1.13-1.67-1.13-2.74v-36.19c0-1.07.38-1.99,1.13-2.74.74-.74,1.68-1.13,2.74-1.13h8.64c2.22,0,4.54.28,6.88.84,2.42.57,4.65,1.67,6.66,3.26,2.01,1.6,3.67,3.88,4.93,6.76,1.25,2.86,1.88,6.59,1.88,11.1s-.63,8.25-1.88,11.1c-1.26,2.88-2.9,5.15-4.87,6.75-1.97,1.6-4.21,2.7-6.67,3.27-2.37.55-4.71.84-6.94.84Zm-8.64-41.72c-.48,0-.85.15-1.18.48-.33.33-.49.71-.49,1.18v36.19c0,.48.15.85.48,1.18.33.33.71.49,1.18.49h8.64c2.06,0,4.22-.26,6.44-.78,2.13-.5,4.07-1.45,5.78-2.84,1.7-1.38,3.12-3.37,4.24-5.93,1.12-2.58,1.69-6.01,1.69-10.22s-.57-7.64-1.69-10.22c-1.12-2.55-2.56-4.54-4.29-5.92-1.75-1.39-3.69-2.35-5.79-2.84-2.18-.52-4.32-.78-6.37-.78h-8.64Z"/>
      <path class="cls-6" d="m36.62,77.57s11.44-.55,13.62-11.53c1.84-9.27-1.61-20.24-4.32-26.8-2.71-6.56-12.27-5.35-12.27-5.35l2.97,43.69Z"/>
      <path class="cls-4" d="m36.09,78.71c-.6,0-1.09-.48-1.1-1.08-.01-.61.47-1.11,1.08-1.12.06,0,6.05-.2,10.07-4.79,3.04-3.47,4.23-8.55,3.54-15.11-.3-2.81-.99-5.77-2.05-8.78-1.45-4.12-3.89-10.51-7.27-17.58-.26-.55-.03-1.21.52-1.47.55-.26,1.21-.03,1.47.52,3.42,7.16,5.89,13.63,7.36,17.8,1.12,3.18,1.85,6.3,2.17,9.28.77,7.21-.61,12.87-4.09,16.82-4.67,5.31-11.37,5.51-11.66,5.51,0,0-.02,0-.02,0Z"/>
      <path class="cls-4" d="m76.81,39.33s6.93-3.37,9.46,2.44c0,0-.19,1.03-1.22.47,0,0-.84,2.53-4.5.56,0,0-2.34-3.19-3.75-3.47Z"/>
    </g>
    <g>
      <polygon class="cls-5" points="63.61 .99 64.58 4.03 21.95 39.11 12.59 25.9 63.61 .99"/>
      <g>
        <path class="cls-5" d="m24.65,38.31l-3.7,7.22c-.66,1.28-2.55,1.08-2.92-.31l-4.92-18.55"/>
        <path class="cls-4" d="m19.55,47.37c-.09,0-.19,0-.28-.02-1.06-.11-1.93-.86-2.2-1.89l-4.92-18.55c-.14-.53.17-1.07.7-1.21.53-.14,1.07.18,1.21.7l4.92,18.55c.09.35.38.42.5.43.12.01.42,0,.58-.31l3.7-7.22c.25-.49.84-.68,1.33-.43.49.25.68.85.43,1.33l-3.7,7.22c-.44.87-1.32,1.39-2.27,1.39Z"/>
      </g>
      <g>
        <path class="cls-5" d="m20.59,31.48l11.34,17.9s.1.05.13,0L64.58,4.03c.05-.07-.03-.16-.11-.12L20.61,31.37s-.05.07-.03.11Z"/>
        <path class="cls-4" d="m31.99,50.41s-.02,0-.02,0c-.36,0-.69-.19-.88-.49l-11.34-17.91h0c-.14-.22-.2-.55-.14-.81.06-.26.25-.53.48-.67L63.95,3.08c.43-.27,1-.2,1.35.17.35.37.39.94.09,1.35l-32.53,45.36c-.2.28-.52.45-.87.45Zm-.73-1.61s0,0,0,.01h0Zm-9.35-17.08l10.13,16L61.1,7.2,21.91,31.72Zm-.49-.77h0s0,0,0,0h0Z"/>
      </g>
      <g>
        <path class="cls-5" d="m17.96,27.68S1.07,22.05,1.07,22.05c-.11-.04-.11-.19,0-.23L63.61.99s.03.02.01.03L17.96,27.68Z"/>
        <path class="cls-4" d="m18.08,28.66c-.34,0-1-.22-3.08-.91-1.59-.53-3.7-1.23-5.81-1.93L.76,22.99c-.45-.15-.76-.57-.76-1.05s.3-.9.76-1.05L63.29.05c.48-.16,1.02.07,1.23.53.21.46.03,1.03-.4,1.28L18.46,28.53s0,0-.01,0c-.12.07-.21.12-.37.12Zm-.12-.98h0,0Zm-14.11-5.73c5.6,1.87,12.31,4.11,13.99,4.66L55.02,4.89,3.85,21.94Z"/>
      </g>
      <g>
        <g>
          <path class="cls-1" d="m28.91,53.91l.52,7.46c.05.7.83,1.09,1.42.72l7.87-4.95c.67-.42.54-1.45-.23-1.67l-8.39-2.51c-.62-.19-1.24.31-1.19.95Z"/>
          <path class="cls-4" d="m30.35,62.89c-.24,0-.49-.06-.72-.17-.5-.25-.83-.74-.87-1.3l-.52-7.46c-.04-.52.19-1.02.59-1.35.41-.33.95-.43,1.45-.28l8.39,2.51c.6.18,1.03.68,1.12,1.31.09.62-.19,1.22-.73,1.56l-7.87,4.95c-.26.16-.55.25-.84.25Zm-.52-9.32c-.08,0-.13.03-.17.06-.04.03-.11.11-.1.23h0l.52,7.46c0,.13.1.2.15.22.05.03.15.06.26-.01l7.87-4.95c.13-.08.13-.2.12-.26,0-.06-.05-.18-.19-.22l-8.39-2.51s-.05-.01-.08-.01Z"/>
        </g>
        <path class="cls-4" d="m22.1,59.22c-1.05,0-2.08-.4-2.85-1.11-.86-.79-1.35-1.92-1.35-3.09v-7.68c0-.55.44-.99.99-.99s.99.44.99.99v7.68c0,.63.25,1.21.72,1.63.46.43,1.06.63,1.69.58l6.23-.5c.54-.05,1.02.36,1.06.91.04.54-.36,1.02-.91,1.06l-6.23.5c-.11,0-.22.01-.33.01Z"/>
        <g>
          <path class="cls-1" d="m30.79,55.86l.21,2.84c.02.27.34.42.59.27l3.28-1.89c.28-.16.22-.55-.09-.64l-3.49-.95c-.26-.07-.52.12-.5.36Z"/>
          <path class="cls-4" d="m31.38,59.45c-.14,0-.27-.03-.39-.1-.24-.13-.39-.36-.41-.62l-.21-2.84h0c-.02-.25.08-.48.28-.64.21-.17.49-.23.75-.16l3.49.95c.31.08.54.34.58.65s-.11.6-.39.76l-3.28,1.89c-.13.07-.27.11-.42.11Zm-.17-3.54l.2,2.68,3.09-1.79-3.29-.89Zm0-.08h0s0,0,0,0h0Z"/>
        </g>
      </g>
    </g>
  </g>
</svg>