<?xml version="1.0" encoding="UTF-8"?>
<svg id="Charte_graphique" data-name="Charte graphique" xmlns="http://www.w3.org/2000/svg" viewBox="0 0 120.19 111.92">
  <defs>
    <style>
      .cls-1 {
        fill: #e5c385;
      }

      .cls-2 {
        fill: #fff;
      }

      .cls-3 {
        fill: #461d6c;
      }

      .cls-4 {
        fill: #b29ccb;
      }

      .cls-5 {
        fill: #6b3e91;
      }
    </style>
  </defs>
  <g id="logo_SubMarks" data-name="logo SubMarks">
    <g>
      <g>
        <g>
          <path class="cls-5" d="m86.39,76.88s-.66-5.58-10.57-2.36l-3.68-.66c-.69.9-1.44,1.69-2.25,2.36-1.86,1.51-3.95,2.53-6.27,3.08-2.32.54-4.57.81-6.73.81h-8.7c-.77,0-1.43-.27-1.97-.81-.54-.54-.81-1.2-.81-1.97v-8.22l-22.87-4.07-.11,33.65c0,.77.27,1.43.81,1.97.54.54,1.2.81,1.97.81h31.68c6.03,0,11.55-.89,16.54-2.67,4.99-1.78,9.91-4.35,13.78-7.83l-.81-14.07Z"/>
          <path class="cls-3" d="m56.89,102.57h-31.68c-1.08,0-2.01-.38-2.76-1.14-.75-.75-1.14-1.68-1.14-2.76l.11-33.65h2.22s-.11,33.66-.11,33.66c0,.48.15.85.49,1.18.33.33.71.49,1.19.49h31.68c5.88,0,11.32-.88,16.16-2.6,5.16-1.84,9.64-4.34,13.01-7.26l-.78-13.48c-.03-.17-.25-1.08-1.27-1.71-1.1-.68-3.35-1.18-7.85.28l-.68-2.11c4.31-1.4,7.6-1.4,9.77-.01,1.58,1.01,2.15,2.55,2.24,3.3l.85,14.67-.4.36c-3.62,3.26-8.52,6.05-14.15,8.05-5.08,1.81-10.77,2.73-16.91,2.73Z"/>
        </g>
        <g>
          <path class="cls-5" d="m28.37,16.14c-2.09.29-4.05,1.12-5.72,2.4-.74.57-1.52,1.23-2.21,1.92-18.75,18.68-3.99,48.72-3.99,48.72,0,0,4.28,16.48,29.77,10.12-.54-.54-.81-1.2-.81-1.97v-36.44c0-.77.27-1.43.81-1.97.54-.54,1.2-.81,1.97-.81h8.7c2.16,0,4.39.27,6.67.81,2.28.54,4.37,1.57,6.27,3.08,1.89,1.51,3.44,3.64,4.64,6.38,1.2,2.75,1.8,6.32,1.8,10.73s-.6,7.99-1.8,10.73c-1.2,2.75-2.73,4.87-4.58,6.38-.27.22-.55.43-.83.63,3.71-1.54,16.93-6.53,17.34.04.92,14.92-3.27,23.83-6.79,23.75-4.05-.1-3.71-5.2-3.32-7.58.12-.74.4-1.43.82-2.05l.69-1.01c.63-.93.18-2.23-.91-2.51-4.28-1.07-12.83,1.01-11.88,2.48.44.68.78,1.16,1.02,1.5.38.52.55,1.16.49,1.81-.36,3.85-.63,16.96,12.27,16.96,20.82.01,20.82-45.2,20.82-45.2C102.67,7.64,42.46,14.2,28.37,16.14Z"/>
          <path class="cls-3" d="m87.81,26.85c-16.45-15.14-44.4-13.91-59.59-11.82-2.27.31-4.43,1.22-6.24,2.63-.89.69-1.67,1.36-2.32,2.01-18.59,18.51-5.12,48.07-4.25,49.9.4,1.29,4.3,12.28,20.1,12.27,3.16,0,6.8-.44,10.97-1.48.43-.11.85-.21,1.27-.3-.59-.08-1.1-.34-1.54-.77-.29-.29-.5-.63-.64-.99-3.9.95-7.28,1.35-10.2,1.35-14.79,0-17.72-10.24-17.86-10.76l-.08-.21c-.14-.29-14.18-29.55,3.78-47.44h0c.58-.58,1.29-1.2,2.11-1.83,1.51-1.17,3.3-1.92,5.19-2.18,14.81-2.03,42-3.28,57.79,11.25,8.93,8.22,13.03,20.5,12.17,36.54,0,.11-.03,11.34-2.58,22.39-2.28,9.9-7.11,21.71-17.12,21.71h0c-3.5,0-6.23-1.05-8.1-3.1-3.47-3.82-3.3-10.12-3.07-12.65.09-.92-.16-1.83-.69-2.56-.17-.24-.4-.56-.67-.97,1.49-.86,7.06-2.1,10.37-1.28.2.05.29.21.32.3.03.08.09.29-.06.51l-.69,1.01c-.52.76-.85,1.6-1,2.5-.37,2.32-.48,5.47,1.09,7.36.79.95,1.93,1.47,3.3,1.5.77,0,1.91-.23,3.16-1.52,2.7-2.8,5.56-10.61,4.77-23.4-.1-1.54-.79-2.74-2.01-3.48-3.24-1.96-9.82-.13-14.06,1.39-.49.55-1,1.05-1.54,1.49-1.03.84-2.13,1.52-3.31,2.06.88.04,1.38.08,1.4.08l.29.03.27-.12c4.62-2.08,12.99-4.73,15.8-3.04.59.36.89.9.94,1.72.7,11.3-1.58,19.05-4.16,21.72-.53.55-1.05.85-1.48.85,0,0-.01,0-.02,0-.74-.02-1.26-.24-1.65-.7-.8-.96-1.02-3-.61-5.6.09-.58.31-1.12.64-1.6l.69-1.01c.51-.75.62-1.7.3-2.55-.31-.83-1.01-1.45-1.86-1.66-3.95-.99-11.61.41-13.01,2.37-.4.57-.43,1.24-.07,1.79.46.7.8,1.2,1.05,1.55.22.3.32.67.28,1.05-.26,2.83-.44,9.88,3.63,14.35,2.31,2.53,5.58,3.82,9.74,3.82h0c9.09,0,15.76-8.11,19.29-23.46,2.6-11.29,2.63-22.74,2.63-22.8.9-16.67-3.44-29.54-12.88-38.23Z"/>
        </g>
        <path class="cls-2" d="m87.49,63.51s-5.48,1.09-8.69,7.26c0,0,15.99,13.69,34.94,3.91,0,0,11.65-8-1.81-5.78-13.46,2.22-19.26.77-24.44-5.39Z"/>
        <path class="cls-3" d="m119.36,68.66c-.84-1.57-3.46-1.73-9.04-.57-15.65,3.27-21.3-2.93-25.09-10.12-.28-.54-.96-.75-1.5-.47-.54.29-.75.96-.46,1.5,3.99,7.58,10.37,14.84,27.5,11.26,4.76-1,6.2-.69,6.57-.55-.08.22-.36.78-1.39,1.8-2.1,2.09-4.81,3.61-7.84,4.4-16.22,4.23-26.86-3.42-32.56-9.74-.19.84-.41,1.63-.68,2.37,5.02,5.16,13.06,10.78,24.3,10.78,2.94,0,6.11-.39,9.49-1.27,3.41-.89,6.46-2.61,8.84-4.97,1.18-1.17,2.66-2.91,1.84-4.43Z"/>
        <path class="cls-3" d="m78.89,71.77c-.16,0-.31-.03-.46-.1-.56-.26-.8-.92-.54-1.47.13-.28,3.21-6.8,9.43-7.78.6-.09,1.17.32,1.27.92.1.6-.32,1.17-.92,1.27-5.06.8-7.74,6.46-7.76,6.52-.19.41-.59.64-1.01.64Z"/>
        <path class="cls-3" d="m56.89,81.21h-8.7c-1.08,0-2.01-.38-2.76-1.14-.75-.75-1.14-1.68-1.14-2.75v-36.44c0-1.07.38-2,1.14-2.76.74-.74,1.7-1.14,2.76-1.14h8.7c2.24,0,4.57.28,6.93.84,2.43.58,4.69,1.68,6.7,3.29,2.03,1.61,3.7,3.9,4.97,6.81,1.26,2.88,1.89,6.64,1.89,11.18s-.64,8.3-1.89,11.18c-1.27,2.9-2.92,5.19-4.9,6.8-1.98,1.61-4.24,2.72-6.71,3.29-2.39.56-4.74.84-6.98.84Zm-8.7-42.01c-.48,0-.86.15-1.19.49-.33.33-.49.71-.49,1.19v36.44c0,.48.15.86.49,1.19.33.33.71.49,1.19.49h8.7c2.07,0,4.25-.26,6.48-.78,2.14-.5,4.1-1.46,5.82-2.86,1.71-1.39,3.14-3.39,4.27-5.97,1.13-2.59,1.71-6.06,1.71-10.29s-.57-7.7-1.71-10.29c-1.12-2.57-2.58-4.57-4.32-5.96-1.76-1.4-3.72-2.36-5.83-2.86-2.19-.52-4.35-.78-6.42-.78h-8.7Z"/>
        <path class="cls-5" d="m37.96,80.66s11.52-.55,13.71-11.61c1.85-9.34-1.62-20.38-4.35-26.98-2.73-6.6-12.35-5.39-12.35-5.39l2.99,43.99Z"/>
        <path class="cls-3" d="m37.42,81.8c-.6,0-1.09-.48-1.11-1.09-.01-.61.47-1.12,1.09-1.13.06,0,6.09-.21,10.14-4.82,3.06-3.49,4.26-8.61,3.56-15.21-.3-2.83-1-5.81-2.07-8.84-1.46-4.15-3.92-10.58-7.32-17.7-.26-.55-.03-1.21.52-1.48.55-.26,1.21-.03,1.48.52,3.44,7.21,5.93,13.72,7.41,17.92,1.13,3.2,1.86,6.34,2.18,9.34.77,7.26-.61,12.95-4.12,16.93-4.7,5.34-11.45,5.54-11.74,5.55,0,0-.02,0-.02,0Z"/>
        <path class="cls-3" d="m78.42,42.16s6.98-3.4,9.53,2.45c0,0-.19,1.04-1.23.47,0,0-.85,2.55-4.53.57,0,0-2.36-3.21-3.77-3.49Z"/>
      </g>
      <g>
        <polygon class="cls-4" points="65.13 3.56 66.12 6.62 23.2 41.94 13.77 28.64 65.13 3.56"/>
        <g>
          <path class="cls-4" d="m25.91,41.13l-3.73,7.27c-.66,1.29-2.57,1.08-2.94-.32l-4.95-18.68"/>
          <path class="cls-3" d="m20.78,50.26c-.09,0-.19,0-.28-.02-1.07-.12-1.94-.86-2.21-1.9l-4.95-18.68c-.14-.53.18-1.08.71-1.22.53-.14,1.08.18,1.22.71l4.95,18.68c.09.35.38.42.5.43.12.01.42,0,.58-.32l3.73-7.27c.25-.49.85-.68,1.34-.43.49.25.68.85.43,1.34l-3.73,7.27c-.45.87-1.32,1.4-2.29,1.4Z"/>
        </g>
        <g>
          <path class="cls-4" d="m21.82,34.26l11.42,18.03s.1.05.13,0L66.12,6.62c.05-.07-.03-.16-.11-.12l-44.16,27.64s-.05.07-.03.11Z"/>
          <path class="cls-3" d="m33.3,53.32s-.02,0-.02,0c-.36,0-.69-.19-.88-.5l-11.42-18.03h0c-.14-.22-.2-.56-.14-.81.06-.26.25-.53.48-.67L65.48,5.66c.44-.27,1.01-.2,1.36.18.35.37.39.95.09,1.36l-32.75,45.67c-.2.28-.52.45-.87.45Zm-.74-1.62s0,0,0,.01h0Zm-9.41-17.2l10.2,16.1L62.61,9.81l-39.46,24.69Zm-.49-.78h0s0,0,0,0h0Z"/>
        </g>
        <g>
          <path class="cls-4" d="m19.18,30.43S2.17,24.77,2.17,24.77c-.11-.04-.11-.19,0-.23L65.13,3.56s.03.02.01.03L19.18,30.43Z"/>
          <path class="cls-3" d="m19.3,31.41c-.34,0-1.01-.22-3.1-.92-1.6-.53-3.72-1.24-5.85-1.95l-8.49-2.84c-.46-.15-.76-.58-.76-1.06s.31-.91.76-1.06L64.82,2.61c.48-.16,1.03.07,1.24.54.21.46.03,1.03-.41,1.29L19.68,31.29s0,0-.01,0c-.13.07-.21.12-.37.12Zm-.12-.99h0,0Zm-14.21-5.77c5.64,1.88,12.4,4.14,14.09,4.69L56.48,7.49,4.97,24.65Z"/>
        </g>
        <g>
          <g>
            <path class="cls-1" d="m30.2,56.84l.52,7.51c.05.7.83,1.1,1.43.73l7.92-4.99c.68-.43.54-1.46-.23-1.69l-8.45-2.53c-.63-.19-1.24.31-1.2.96Z"/>
            <path class="cls-3" d="m31.65,65.88c-.25,0-.49-.06-.72-.17-.51-.26-.83-.75-.87-1.31l-.52-7.51c-.04-.52.19-1.03.6-1.36.41-.33.96-.43,1.46-.28l8.45,2.53c.61.18,1.04.69,1.12,1.31.09.63-.19,1.23-.73,1.57l-7.92,4.99c-.26.16-.55.25-.85.25Zm-.53-9.38c-.08,0-.14.04-.17.06-.04.03-.11.11-.1.23h0l.52,7.51c0,.13.1.2.15.22.05.03.15.06.27-.01l7.92-4.99c.13-.08.13-.2.12-.27,0-.06-.05-.18-.19-.22l-8.45-2.53s-.06-.01-.08-.01Z"/>
          </g>
          <path class="cls-3" d="m23.34,62.18c-1.06,0-2.09-.4-2.87-1.12-.86-.8-1.36-1.93-1.36-3.11v-7.74c0-.55.45-1,1-1s1,.45,1,1v7.74c0,.63.26,1.22.72,1.65.47.43,1.07.64,1.7.59l6.27-.5c.54-.05,1.03.36,1.07.91.04.55-.36,1.03-.91,1.07l-6.27.5c-.11,0-.22.01-.33.01Z"/>
          <g>
            <path class="cls-1" d="m32.09,58.8l.21,2.86c.02.27.35.42.59.27l3.31-1.91c.28-.16.23-.55-.09-.64l-3.52-.95c-.26-.07-.52.12-.5.37Z"/>
            <path class="cls-3" d="m32.69,62.41c-.14,0-.27-.03-.39-.1-.24-.13-.4-.36-.42-.63l-.21-2.86h0c-.02-.25.08-.49.28-.65.21-.17.49-.23.75-.16l3.52.95c.31.09.54.34.58.65s-.11.6-.39.77l-3.31,1.91c-.13.07-.27.11-.42.11Zm-.17-3.56l.2,2.7,3.11-1.8-3.31-.9Zm0-.08h0s0,0,0,0h0Z"/>
          </g>
        </g>
      </g>
    </g>
  </g>
</svg>