<?xml version="1.0" encoding="utf-8"?>
<!-- Generator: Adobe Illustrator 27.3.1, SVG Export Plug-In . SVG Version: 6.00 Build 0)  -->
<svg version="1.1" xmlns="http://www.w3.org/2000/svg" xmlns:xlink="http://www.w3.org/1999/xlink" x="0px" y="0px"
	 viewBox="0 0 498.3 108.1" style="enable-background:new 0 0 498.3 108.1;" xml:space="preserve">
<style type="text/css">
	.st0{display:none;}
	.st1{display:inline;}
	.st2{fill:#663399;}
	.st3{fill:#FFFFFF;}
	.st4{fill:none;stroke:#000000;stroke-linecap:round;stroke-linejoin:round;stroke-miterlimit:10;}
	.st5{fill:#663399;stroke:#411C6B;stroke-width:3;stroke-miterlimit:10;}
	.st6{fill:none;stroke:#411C6B;stroke-width:3;stroke-linecap:round;stroke-linejoin:round;stroke-miterlimit:10;}
	.st7{fill:#FFFFFF;stroke:#411C6B;stroke-width:3;stroke-miterlimit:10;}
	.st8{fill:#411C6B;}
	.st9{fill:#BA9EDB;}
	.st10{fill:#BA9EDB;stroke:#411C6B;stroke-width:3;stroke-linecap:round;stroke-linejoin:round;stroke-miterlimit:10;}
	.st11{fill:#E5C384;stroke:#411C6B;stroke-width:2;stroke-linecap:round;stroke-linejoin:round;stroke-miterlimit:10;}
	.st12{fill:#E5C384;stroke:#411C6B;stroke-width:1.279;stroke-linecap:round;stroke-linejoin:round;stroke-miterlimit:10;}
	.st13{fill:#663399;stroke:#000000;stroke-width:3;stroke-miterlimit:10;}
	.st14{fill:none;stroke:#000000;stroke-width:3;stroke-linecap:round;stroke-linejoin:round;stroke-miterlimit:10;}
	.st15{fill:#FFFFFF;stroke:#000000;stroke-width:3;stroke-miterlimit:10;}
	.st16{fill:#E5C384;}
	.st17{display:inline;fill:#FFFFFF;}
	.st18{display:inline;fill:#411C6B;}
	.st19{display:inline;fill:#663399;}
	.st20{display:inline;fill:none;stroke:#000000;stroke-linecap:round;stroke-linejoin:round;stroke-miterlimit:10;}
	.st21{fill:#1D1D1B;}
	.st22{fill:none;stroke:#000000;stroke-width:0.6107;stroke-linecap:round;stroke-linejoin:round;stroke-miterlimit:10;}
	.st23{fill:none;stroke:#000000;stroke-width:1.3441;stroke-linecap:round;stroke-linejoin:round;stroke-miterlimit:10;}
	.st24{fill:none;stroke:#000000;stroke-width:0.7235;stroke-linecap:round;stroke-linejoin:round;stroke-miterlimit:10;}
	.st25{fill:#6B3E91;}
	.st26{fill:#461D6C;}
	.st27{fill:#B29CCB;}
	.st28{fill:#E5C385;}
	.st29{fill:none;stroke:#000000;stroke-width:1.3299;stroke-linecap:round;stroke-linejoin:round;stroke-miterlimit:10;}
</style>
<g id="Calque_1" class="st0">
	<g id="Calque_3" class="st1">
	</g>
	<g id="Calque_4" class="st1">
	</g>
</g>
<g id="Calque_2" class="st0">
</g>
<g id="Charte_graphique">
	<g>
		<g id="logo_de_base_00000144305008779144337030000013800037463105681077_">
			<g>
				<g>
					<g>
						<path class="st16" d="M227.7,41.7l0.7-10.2c0.1-1,1.1-1.5,1.9-1l10.8,6.8c0.9,0.6,0.7,2-0.3,2.3L229.3,43
							C228.5,43.2,227.7,42.6,227.7,41.7z"/>
						<path class="st26" d="M229.7,29.4c-0.3,0-0.7,0.1-1,0.2c-0.7,0.3-1.1,1-1.2,1.8l-0.7,10.2c0,0.7,0.3,1.4,0.8,1.8
							c0.6,0.4,1.3,0.6,2,0.4l11.5-3.4c0.8-0.2,1.4-0.9,1.5-1.8s-0.3-1.7-1-2.1l-10.8-6.8C230.5,29.5,230.1,29.4,229.7,29.4z
							 M229,42.1c-0.1,0-0.2,0-0.2-0.1c-0.1,0-0.1-0.1-0.1-0.3l0,0l0.7-10.2c0-0.2,0.1-0.3,0.2-0.3c0.1,0,0.2-0.1,0.4,0l10.8,6.8
							c0.2,0.1,0.2,0.3,0.2,0.4c0,0.1-0.1,0.2-0.3,0.3l-11.5,3.4C229.1,42.1,229,42.1,229,42.1z"/>
					</g>
					<path class="st26" d="M218.4,34.4c-1.4,0-2.8,0.5-3.9,1.5c-1.2,1.1-1.8,2.6-1.8,4.2v10.5c0,0.7,0.6,1.4,1.4,1.4
						s1.4-0.6,1.4-1.4V40.2c0-0.9,0.3-1.7,1-2.2c0.6-0.6,1.5-0.9,2.3-0.8l8.5,0.7c0.7,0.1,1.4-0.5,1.5-1.2c0.1-0.7-0.5-1.4-1.2-1.5
						l-8.5-0.7C218.7,34.4,218.6,34.4,218.4,34.4z"/>
					<g>
						<path class="st16" d="M230.3,39l0.3-3.9c0-0.4,0.5-0.6,0.8-0.4l4.5,2.6c0.4,0.2,0.3,0.8-0.1,0.9l-4.8,1.3
							C230.6,39.6,230.3,39.3,230.3,39z"/>
						<path class="st26" d="M231.1,34.1c-0.2,0-0.4,0-0.5,0.1c-0.3,0.2-0.5,0.5-0.6,0.9l-0.3,3.9l0,0c0,0.3,0.1,0.7,0.4,0.9
							c0.3,0.2,0.7,0.3,1,0.2l4.8-1.3c0.4-0.1,0.7-0.5,0.8-0.9c0.1-0.4-0.1-0.8-0.5-1l-4.5-2.6C231.5,34.1,231.3,34.1,231.1,34.1z
							 M230.9,38.9l0.3-3.7l4.2,2.4L230.9,38.9z M230.9,39L230.9,39L230.9,39L230.9,39z"/>
					</g>
				</g>
				<g>
					<g>
						<path class="st16" d="M399.6,95.8l0.7,10.2c0.1,1,1.1,1.5,1.9,1l10.8-6.8c0.9-0.6,0.7-2-0.3-2.3l-11.5-3.4
							C400.3,94.2,399.5,94.9,399.6,95.8z"/>
						<path class="st26" d="M401.5,108.1c-0.3,0-0.7-0.1-1-0.2c-0.7-0.3-1.1-1-1.2-1.8l-0.7-10.2c0-0.7,0.3-1.4,0.8-1.8
							c0.6-0.4,1.3-0.6,2-0.4l11.5,3.4c0.8,0.2,1.4,0.9,1.5,1.8c0.1,0.9-0.3,1.7-1,2.1l-10.8,6.8C402.3,108,401.9,108.1,401.5,108.1
							z M400.8,95.3c-0.1,0-0.2,0-0.2,0.1c-0.1,0-0.1,0.1-0.1,0.3l0,0l0.7,10.2c0,0.2,0.1,0.3,0.2,0.3c0.1,0,0.2,0.1,0.4,0l10.8-6.8
							c0.2-0.1,0.2-0.3,0.2-0.4c0-0.1-0.1-0.2-0.3-0.3l-11.5-3.4C400.9,95.3,400.9,95.3,400.8,95.3z"/>
					</g>
					<path class="st26" d="M390.3,103c-1.4,0-2.8-0.5-3.9-1.5c-1.2-1.1-1.8-2.6-1.8-4.2V86.8c0-0.7,0.6-1.4,1.4-1.4
						c0.7,0,1.4,0.6,1.4,1.4v10.5c0,0.9,0.3,1.7,1,2.2c0.6,0.6,1.5,0.9,2.3,0.8l8.5-0.7c0.7-0.1,1.4,0.5,1.5,1.2
						c0.1,0.7-0.5,1.4-1.2,1.5l-8.5,0.7C390.6,103,390.4,103,390.3,103z"/>
					<g>
						<path class="st16" d="M402.1,98.4l0.3,3.9c0,0.4,0.5,0.6,0.8,0.4l4.5-2.6c0.4-0.2,0.3-0.8-0.1-0.9l-4.8-1.3
							C402.5,97.9,402.1,98.1,402.1,98.4z"/>
						<path class="st26" d="M402.9,103.4c-0.2,0-0.4,0-0.5-0.1c-0.3-0.2-0.5-0.5-0.6-0.9l-0.3-3.9l0,0c0-0.3,0.1-0.7,0.4-0.9
							c0.3-0.2,0.7-0.3,1-0.2l4.8,1.3c0.4,0.1,0.7,0.5,0.8,0.9c0.1,0.4-0.1,0.8-0.5,1l-4.5,2.6C403.3,103.3,403.1,103.4,402.9,103.4
							z M402.7,98.5l0.3,3.7l4.2-2.4L402.7,98.5z M402.7,98.4L402.7,98.4L402.7,98.4L402.7,98.4z"/>
					</g>
				</g>
			</g>
			<g>
				<path class="st25" d="M123.7,93h-10c-0.5,0-0.9-0.2-1.2-0.5c-0.3-0.3-0.4-0.7-0.4-1.1V46c0-0.4,0.1-0.8,0.4-1.1
					c0.3-0.3,0.7-0.5,1.2-0.5h10c0.4,0,0.8,0.2,1.1,0.5c0.3,0.3,0.5,0.7,0.5,1.1v45.4c0,0.4-0.2,0.8-0.5,1.1
					C124.5,92.8,124.1,93,123.7,93z"/>
				<path class="st25" d="M157.6,93.8c-3.5,0-6.9-0.7-10-2c-3.1-1.3-5.8-3.1-8.1-5.4c-2.3-2.3-4.2-4.9-5.5-8c-1.4-3.1-2-6.3-2-9.8
					c0-3.5,0.7-6.7,2-9.8c1.4-3.1,3.2-5.7,5.5-8c2.3-2.3,5-4.1,8.1-5.4c3.1-1.3,6.4-2,10-2c4.9,0,9.1,1,12.7,3
					c3.6,2,6.5,4.7,8.8,8.2c0.2,0.4,0.3,0.8,0.2,1.2c-0.1,0.5-0.3,0.8-0.7,1l-8,5.1c-0.4,0.2-0.8,0.3-1.2,0.2
					c-0.4-0.1-0.8-0.3-1.1-0.6c-1.4-1.7-2.9-3-4.6-4.1c-1.7-1-3.7-1.5-6.1-1.5c-1.7,0-3.3,0.3-4.8,1c-1.5,0.7-2.8,1.6-3.9,2.8
					c-1.1,1.2-2,2.5-2.6,4c-0.6,1.5-1,3.1-1,4.8c0,1.7,0.3,3.3,1,4.8c0.6,1.5,1.5,2.8,2.6,4c1.1,1.1,2.4,2,3.9,2.7
					c1.5,0.7,3.1,1,4.8,1c1.7,0,3.3-0.3,5-0.9c1.6-0.6,2.9-1.6,3.9-3.1c0.2-0.4,0.2-0.7,0.1-1c-0.2-0.3-0.5-0.4-0.9-0.4H158
					c-0.4,0-0.8-0.2-1.1-0.5c-0.3-0.3-0.5-0.7-0.5-1.1v-7.9c0-0.4,0.2-0.8,0.5-1.1c0.3-0.3,0.7-0.5,1.1-0.5h22.9
					c0.4,0,0.8,0.1,1.2,0.4c0.3,0.3,0.5,0.7,0.6,1.2c0.1,0.8,0.1,1.7,0.1,2.8c0,1.1-0.1,2.2-0.2,3.4c-0.3,3.1-1.2,5.9-2.6,8.5
					c-1.4,2.6-3.2,4.9-5.5,6.8c-2.2,1.9-4.8,3.4-7.7,4.5C163.9,93.3,160.8,93.8,157.6,93.8z"/>
				<path class="st25" d="M201.2,93h-10c-0.5,0-0.9-0.2-1.2-0.5c-0.3-0.3-0.4-0.7-0.4-1.1V46c0-0.4,0.1-0.8,0.4-1.1
					c0.3-0.3,0.7-0.5,1.2-0.5h10c0.4,0,0.8,0.2,1.1,0.5c0.3,0.3,0.5,0.7,0.5,1.1v45.4c0,0.4-0.2,0.8-0.5,1.1
					C202,92.8,201.6,93,201.2,93z"/>
				<path class="st25" d="M257.4,45.9v45.5c0,0.4-0.2,0.8-0.5,1.1c-0.3,0.3-0.7,0.5-1.1,0.5H246c-0.4,0-0.9-0.1-1.4-0.4
					c-0.5-0.3-0.9-0.6-1.1-0.9l-17.3-24.4c-0.3-0.4-0.5-0.5-0.8-0.4c-0.3,0.1-0.4,0.3-0.4,0.8v23.8c0,0.4-0.2,0.8-0.5,1.1
					c-0.3,0.3-0.7,0.5-1.1,0.5h-10c-0.4,0-0.8-0.2-1.1-0.5c-0.3-0.3-0.5-0.7-0.5-1.1V45.9c0-0.4,0.2-0.8,0.5-1.1
					c0.3-0.3,0.7-0.5,1.1-0.5h10c0.4,0,0.9,0.1,1.4,0.4c0.5,0.2,0.9,0.5,1.1,0.9L243.1,70c0.3,0.4,0.5,0.5,0.8,0.5
					c0.3,0,0.4-0.3,0.4-0.7V45.9c0-0.4,0.2-0.8,0.5-1.1c0.3-0.3,0.7-0.5,1.1-0.5h9.8c0.4,0,0.8,0.2,1.1,0.5
					C257.3,45.1,257.4,45.5,257.4,45.9z"/>
				<path class="st25" d="M281.7,45.8c0.2-0.4,0.5-0.7,0.9-1c0.4-0.3,0.9-0.4,1.4-0.4h9.3c0.4,0,0.9,0.1,1.3,0.4
					c0.4,0.3,0.7,0.6,0.9,1L314.9,91c0.2,0.4,0.1,0.8-0.1,1.3c-0.2,0.4-0.7,0.7-1.4,0.7H302c-0.5,0-0.9-0.1-1.4-0.4
					c-0.4-0.3-0.7-0.6-1-1l-1.8-4c-0.2-0.4-0.5-0.7-1-1c-0.4-0.3-0.9-0.4-1.3-0.4h-14c-0.5,0-0.9,0.1-1.4,0.4
					c-0.4,0.3-0.7,0.6-0.9,1l-1.9,4c-0.2,0.4-0.5,0.7-0.9,1c-0.4,0.3-0.9,0.4-1.3,0.4h-11.4c-0.2,0-0.5,0-0.7-0.1
					c-0.2-0.1-0.4-0.2-0.6-0.4c-0.2-0.2-0.3-0.4-0.3-0.7c0-0.3,0-0.6,0.2-0.9L281.7,45.8z M285.7,74.8h5.9c0.4,0,0.8-0.1,1-0.4
					c0.2-0.3,0.2-0.6,0-1c-0.4-1.1-1-2.4-1.6-3.9c-0.6-1.5-1.2-2.9-1.7-4.2c-0.2-0.4-0.4-0.6-0.6-0.6c-0.2,0-0.4,0.2-0.6,0.6l-3.3,8
					c-0.2,0.4-0.2,0.7,0,1C284.8,74.6,285.2,74.8,285.7,74.8z"/>
				<path class="st25" d="M365.3,45.9v45.5c0,0.4-0.2,0.8-0.5,1.1c-0.3,0.3-0.7,0.5-1.1,0.5h-9.8c-0.4,0-0.9-0.1-1.4-0.4
					c-0.5-0.3-0.9-0.6-1.1-0.9L334,67.2c-0.3-0.4-0.5-0.5-0.8-0.4c-0.3,0.1-0.4,0.3-0.4,0.8v23.8c0,0.4-0.2,0.8-0.5,1.1
					c-0.3,0.3-0.7,0.5-1.1,0.5h-10c-0.4,0-0.8-0.2-1.1-0.5c-0.3-0.3-0.5-0.7-0.5-1.1V45.9c0-0.4,0.2-0.8,0.5-1.1
					c0.3-0.3,0.7-0.5,1.1-0.5h10c0.4,0,0.9,0.1,1.4,0.4c0.5,0.2,0.9,0.5,1.1,0.9L351,70c0.3,0.4,0.5,0.5,0.8,0.5
					c0.3,0,0.4-0.3,0.4-0.7V45.9c0-0.4,0.2-0.8,0.5-1.1c0.3-0.3,0.7-0.5,1.1-0.5h9.8c0.4,0,0.8,0.2,1.1,0.5
					C365.1,45.1,365.3,45.5,365.3,45.9z"/>
				<path class="st25" d="M407.8,56.5h-9.3c-0.4,0-0.8,0.2-1.1,0.5c-0.3,0.3-0.5,0.7-0.5,1.1v33.2c0,0.4-0.1,0.8-0.4,1.1
					c-0.3,0.3-0.7,0.5-1.2,0.5h-10c-0.4,0-0.8-0.2-1.1-0.5c-0.3-0.3-0.5-0.7-0.5-1.1V58.1c0-0.4-0.1-0.8-0.4-1.1
					c-0.3-0.3-0.7-0.5-1.2-0.5h-9.4c-0.4,0-0.8-0.2-1.1-0.5c-0.3-0.3-0.5-0.7-0.5-1.1v-9c0-0.4,0.2-0.8,0.5-1.1
					c0.3-0.3,0.7-0.5,1.1-0.5h35.1c0.5,0,0.9,0.2,1.2,0.5c0.3,0.3,0.4,0.7,0.4,1.1v9c0,0.4-0.1,0.8-0.4,1.1
					C408.7,56.4,408.3,56.5,407.8,56.5z"/>
				<path class="st25" d="M427.6,58.1v2.8c0,0.4,0.2,0.8,0.5,1.1c0.3,0.3,0.7,0.5,1.1,0.5h18c0.4,0,0.8,0.2,1.1,0.5
					c0.3,0.3,0.5,0.7,0.5,1.1v9.2c0,0.4-0.2,0.8-0.5,1.1c-0.3,0.3-0.7,0.5-1.1,0.5h-18c-0.4,0-0.8,0.2-1.1,0.5
					c-0.3,0.3-0.5,0.7-0.5,1.1V79c0,0.4,0.2,0.8,0.5,1.1c0.3,0.3,0.7,0.5,1.1,0.5h20.7c0.4,0,0.8,0.2,1.1,0.5
					c0.3,0.3,0.5,0.7,0.5,1.1v9.2c0,0.4-0.2,0.8-0.5,1.1c-0.3,0.3-0.7,0.5-1.1,0.5h-33.8c-0.4,0-0.8-0.2-1.1-0.5
					c-0.3-0.3-0.5-0.7-0.5-1.1V45.9c0-0.4,0.2-0.8,0.5-1.1c0.3-0.3,0.7-0.5,1.1-0.5h33.8c0.4,0,0.8,0.2,1.1,0.5
					c0.3,0.3,0.5,0.7,0.5,1.1v9c0,0.4-0.2,0.8-0.5,1.1c-0.3,0.3-0.7,0.5-1.1,0.5h-20.7c-0.4,0-0.8,0.2-1.1,0.5
					C427.8,57.3,427.6,57.7,427.6,58.1z"/>
				<path class="st25" d="M465.5,76.3c2.4,1.6,4.8,2.8,7.1,3.7c2.3,0.9,4.5,1.3,6.6,1.3c1.9,0,3.4-0.3,4.5-0.8
					c1-0.6,1.5-1.4,1.5-2.5c0-0.6-0.2-1-0.7-1.4c-0.4-0.3-1-0.6-1.8-0.8c-0.7-0.2-1.6-0.4-2.6-0.5c-1-0.1-2-0.3-3-0.5
					c-1-0.2-2.1-0.4-3.4-0.6c-1.3-0.2-2.6-0.6-4-1.1c-1.4-0.5-2.7-1.1-4.1-1.8c-1.4-0.7-2.6-1.6-3.6-2.7c-1.1-1.1-1.9-2.4-2.6-4
					c-0.6-1.5-1-3.3-1-5.4c0-3.1,0.6-5.6,1.8-7.6c1.2-2,2.7-3.6,4.6-4.8c1.8-1.2,3.9-2,6.1-2.5c2.3-0.5,4.5-0.7,6.6-0.7
					c3.7,0,7.1,0.5,10,1.6c2.9,1.1,5.8,2.7,8.5,4.8c0.4,0.3,0.6,0.7,0.6,1.1c0,0.4-0.1,0.8-0.3,1.2l-5.2,7.4
					c-0.3,0.4-0.6,0.6-1.1,0.7c-0.4,0.1-0.8,0-1.2-0.3c-2.3-1.4-4.4-2.4-6.3-3c-2-0.6-3.7-0.9-5.4-0.9c-0.5,0-1.1,0-1.7,0
					c-0.6,0-1.3,0.1-1.8,0.3c-0.6,0.2-1.1,0.4-1.4,0.8c-0.4,0.4-0.6,0.8-0.6,1.5c0,0.6,0.5,1.2,1.4,1.7c0.9,0.5,2,0.9,3.2,1.3
					c1.2,0.4,2.3,0.6,3.5,0.8c1.1,0.2,1.8,0.3,2.1,0.4c1.6,0.3,3.3,0.8,5.3,1.4c1.9,0.6,3.7,1.5,5.4,2.7c1.7,1.2,3.1,2.7,4.2,4.6
					c1.1,1.9,1.7,4.2,1.7,7.1c0,2.7-0.5,5-1.4,6.9c-0.9,1.9-2.2,3.5-3.9,4.8c-1.7,1.2-3.7,2.2-6,2.8c-2.3,0.6-4.9,0.9-7.7,0.9
					c-2.3,0-4.5-0.2-6.4-0.6c-2-0.4-3.9-0.9-5.6-1.6c-1.7-0.7-3.3-1.5-4.8-2.4c-1.5-0.9-2.8-1.9-4.1-2.9c-0.4-0.3-0.6-0.6-0.6-1.1
					c0-0.5,0.1-0.9,0.3-1.2l5.1-7.4c0.3-0.4,0.6-0.6,1.1-0.7C464.7,76,465.1,76.1,465.5,76.3z"/>
			</g>
		</g>
		<g>
			<g>
				<g>
					<g>
						<path class="st25" d="M84.7,73.8c0,0-0.7-5.5-10.5-2.3l-3.7-0.7c-0.7,0.9-1.4,1.7-2.2,2.3c-1.8,1.5-3.9,2.5-6.2,3.1
							c-2.3,0.5-4.5,0.8-6.7,0.8h-8.6c-0.8,0-1.4-0.3-2-0.8c-0.5-0.5-0.8-1.2-0.8-2v-8.2l-22.7-4l-0.1,33.4c0,0.8,0.3,1.4,0.8,2
							c0.5,0.5,1.2,0.8,2,0.8h31.5c6,0,11.5-0.9,16.4-2.7c5-1.8,9.8-4.3,13.7-7.8L84.7,73.8z"/>
						<path class="st26" d="M55.4,99.3H24c-1.1,0-2-0.4-2.7-1.1c-0.7-0.7-1.1-1.7-1.1-2.7L20.2,62l2.2,0l-0.1,33.4
							c0,0.5,0.2,0.8,0.5,1.2c0.3,0.3,0.7,0.5,1.2,0.5h31.5c5.8,0,11.2-0.9,16.1-2.6c5.1-1.8,9.6-4.3,12.9-7.2l-0.8-13.4
							c0-0.2-0.3-1.1-1.3-1.7c-1.1-0.7-3.3-1.2-7.8,0.3l-0.7-2.1c4.3-1.4,7.5-1.4,9.7,0c1.6,1,2.1,2.5,2.2,3.3l0.8,14.6l-0.4,0.4
							c-3.6,3.2-8.5,6-14.1,8C67.2,98.4,61.5,99.3,55.4,99.3z"/>
					</g>
				</g>
				<g>
					<path class="st25" d="M27.1,13.5c-2.1,0.3-4,1.1-5.7,2.4c-0.7,0.6-1.5,1.2-2.2,1.9c-18.6,18.5-4,48.4-4,48.4s4.2,16.4,29.6,10
						c-0.5-0.5-0.8-1.2-0.8-2V38.1c0-0.8,0.3-1.4,0.8-2c0.5-0.5,1.2-0.8,2-0.8h8.6c2.2,0,4.4,0.3,6.6,0.8c2.3,0.5,4.3,1.6,6.2,3.1
						c1.9,1.5,3.4,3.6,4.6,6.3c1.2,2.7,1.8,6.3,1.8,10.7s-0.6,7.9-1.8,10.7c-1.2,2.7-2.7,4.8-4.6,6.3c-0.3,0.2-0.5,0.4-0.8,0.6
						c3.7-1.5,16.8-6.5,17.2,0c0.9,14.8-3.2,23.7-6.7,23.6c-4-0.1-3.7-5.2-3.3-7.5c0.1-0.7,0.4-1.4,0.8-2l0.7-1
						c0.6-0.9,0.2-2.2-0.9-2.5c-4.3-1.1-12.7,1-11.8,2.5c0.4,0.7,0.8,1.2,1,1.5c0.4,0.5,0.5,1.2,0.5,1.8
						c-0.4,3.8-0.6,16.8,12.2,16.8C97.8,107,97.8,62,97.8,62C100.9,5,41.1,11.6,27.1,13.5z"/>
					<path class="st26" d="M86.1,24.1C69.8,9.1,42,10.3,26.9,12.4c-2.3,0.3-4.4,1.2-6.2,2.6c-0.9,0.7-1.7,1.4-2.3,2
						C0,35.4,13.4,64.7,14.2,66.6c0.4,1.3,4.3,12.2,20,12.2c3.1,0,6.7-0.4,10.9-1.5c0.4-0.1,0.8-0.2,1.3-0.3
						c-0.6-0.1-1.1-0.3-1.5-0.8c-0.3-0.3-0.5-0.6-0.6-1c-3.9,0.9-7.2,1.3-10.1,1.3c-14.7,0-17.6-10.2-17.7-10.7l-0.1-0.2
						C16.1,65.4,2.2,36.3,20,18.6v0c0.6-0.6,1.3-1.2,2.1-1.8c1.5-1.2,3.3-1.9,5.2-2.2c14.7-2,41.7-3.3,57.4,11.2
						c8.9,8.2,12.9,20.4,12.1,36.3c0,0.1,0,11.3-2.6,22.2c-2.3,9.8-7.1,21.6-17,21.6c0,0,0,0,0,0c-3.5,0-6.2-1-8-3.1
						c-3.5-3.8-3.3-10.1-3-12.6c0.1-0.9-0.2-1.8-0.7-2.5c-0.2-0.2-0.4-0.6-0.7-1c1.5-0.9,7-2.1,10.3-1.3c0.2,0.1,0.3,0.2,0.3,0.3
						c0,0.1,0.1,0.3-0.1,0.5l-0.7,1c-0.5,0.8-0.8,1.6-1,2.5c-0.4,2.3-0.5,5.4,1.1,7.3c0.8,0.9,1.9,1.5,3.3,1.5
						c0.8,0,1.9-0.2,3.1-1.5c2.7-2.8,5.5-10.5,4.7-23.2c-0.1-1.5-0.8-2.7-2-3.5c-3.2-1.9-9.8-0.1-14,1.4c-0.5,0.5-1,1-1.5,1.5
						c-1,0.8-2.1,1.5-3.3,2c0.9,0,1.4,0.1,1.4,0.1l0.3,0l0.3-0.1c4.6-2.1,12.9-4.7,15.7-3c0.6,0.4,0.9,0.9,0.9,1.7
						c0.7,11.2-1.6,18.9-4.1,21.6c-0.5,0.5-1,0.8-1.5,0.8c0,0,0,0,0,0c-0.7,0-1.3-0.2-1.6-0.7c-0.8-1-1-3-0.6-5.6
						c0.1-0.6,0.3-1.1,0.6-1.6l0.7-1c0.5-0.7,0.6-1.7,0.3-2.5c-0.3-0.8-1-1.4-1.8-1.6c-3.9-1-11.5,0.4-12.9,2.4
						c-0.4,0.6-0.4,1.2-0.1,1.8c0.5,0.7,0.8,1.2,1,1.5c0.2,0.3,0.3,0.7,0.3,1c-0.3,2.8-0.4,9.8,3.6,14.3c2.3,2.5,5.5,3.8,9.7,3.8
						c0,0,0,0,0,0c9,0,15.6-8.1,19.2-23.3c2.6-11.2,2.6-22.6,2.6-22.6C99.8,45.5,95.5,32.8,86.1,24.1z"/>
				</g>
				<path class="st3" d="M85.8,60.5c0,0-5.4,1.1-8.6,7.2c0,0,15.9,13.6,34.7,3.9c0,0,11.6-7.9-1.8-5.7C96.7,68.1,91,66.7,85.8,60.5z
					"/>
				<path class="st26" d="M117.5,65.6c-0.8-1.6-3.4-1.7-9-0.6C92.9,68.3,87.3,62.2,83.6,55c-0.3-0.5-0.9-0.7-1.5-0.5
					c-0.5,0.3-0.7,0.9-0.5,1.5c4,7.5,10.3,14.7,27.3,11.2c4.7-1,6.2-0.7,6.5-0.5c-0.1,0.2-0.4,0.8-1.4,1.8c-2.1,2.1-4.8,3.6-7.8,4.4
					C90.2,77,79.6,69.5,74,63.2c-0.2,0.8-0.4,1.6-0.7,2.4c5,5.1,13,10.7,24.1,10.7c2.9,0,6.1-0.4,9.4-1.3c3.4-0.9,6.4-2.6,8.8-4.9
					C116.8,68.9,118.3,67.2,117.5,65.6z"/>
				<path class="st26" d="M77.3,68.7c-0.2,0-0.3,0-0.5-0.1c-0.6-0.3-0.8-0.9-0.5-1.5c0.1-0.3,3.2-6.8,9.4-7.7
					c0.6-0.1,1.2,0.3,1.3,0.9c0.1,0.6-0.3,1.2-0.9,1.3c-5,0.8-7.7,6.4-7.7,6.5C78.1,68.5,77.7,68.7,77.3,68.7z"/>
				<g>
					<g>
						<path class="st26" d="M55.4,78.1h-8.6c-1.1,0-2-0.4-2.7-1.1c-0.7-0.7-1.1-1.7-1.1-2.7V38.1c0-1.1,0.4-2,1.1-2.7
							c0.7-0.7,1.7-1.1,2.7-1.1h8.6c2.2,0,4.5,0.3,6.9,0.8c2.4,0.6,4.7,1.7,6.7,3.3c2,1.6,3.7,3.9,4.9,6.8c1.2,2.9,1.9,6.6,1.9,11.1
							c0,4.5-0.6,8.2-1.9,11.1C72.6,70.1,71,72.4,69,74c-2,1.6-4.2,2.7-6.7,3.3C60,77.8,57.6,78.1,55.4,78.1z M46.8,36.4
							c-0.5,0-0.9,0.2-1.2,0.5c-0.3,0.3-0.5,0.7-0.5,1.2v36.2c0,0.5,0.2,0.9,0.5,1.2c0.3,0.3,0.7,0.5,1.2,0.5h8.6
							c2.1,0,4.2-0.3,6.4-0.8c2.1-0.5,4.1-1.4,5.8-2.8c1.7-1.4,3.1-3.4,4.2-5.9c1.1-2.6,1.7-6,1.7-10.2c0-4.2-0.6-7.6-1.7-10.2
							c-1.1-2.6-2.6-4.5-4.3-5.9c-1.7-1.4-3.7-2.3-5.8-2.8c-2.2-0.5-4.3-0.8-6.4-0.8H46.8z"/>
					</g>
				</g>
				<path class="st25" d="M36.6,77.6c0,0,11.4-0.6,13.6-11.5c1.8-9.3-1.6-20.2-4.3-26.8s-12.3-5.4-12.3-5.4L36.6,77.6z"/>
				<path class="st26" d="M36.1,78.7c-0.6,0-1.1-0.5-1.1-1.1c0-0.6,0.5-1.1,1.1-1.1c0.1,0,6.1-0.2,10.1-4.8c3-3.5,4.2-8.6,3.5-15.1
					c-0.3-2.8-1-5.8-2.1-8.8c-1.5-4.1-3.9-10.5-7.3-17.6c-0.3-0.5,0-1.2,0.5-1.5c0.5-0.3,1.2,0,1.5,0.5c3.4,7.2,5.9,13.6,7.4,17.8
					c1.1,3.2,1.9,6.3,2.2,9.3c0.8,7.2-0.6,12.9-4.1,16.8C43.1,78.5,36.4,78.7,36.1,78.7C36.1,78.7,36.1,78.7,36.1,78.7z"/>
				<path class="st26" d="M76.8,39.3c0,0,6.9-3.4,9.5,2.4c0,0-0.2,1-1.2,0.5c0,0-0.8,2.5-4.5,0.6C80.6,42.8,78.2,39.6,76.8,39.3z"/>
			</g>
			<g>
				<polygon class="st27" points="63.6,1 64.6,4 22,39.1 12.6,25.9 				"/>
				<g>
					<path class="st27" d="M24.6,38.3l-3.7,7.2c-0.7,1.3-2.5,1.1-2.9-0.3l-4.9-18.6"/>
					<path class="st26" d="M19.6,47.4c-0.1,0-0.2,0-0.3,0c-1.1-0.1-1.9-0.9-2.2-1.9l-4.9-18.6c-0.1-0.5,0.2-1.1,0.7-1.2
						c0.5-0.1,1.1,0.2,1.2,0.7L19,45c0.1,0.3,0.4,0.4,0.5,0.4c0.1,0,0.4,0,0.6-0.3l3.7-7.2c0.2-0.5,0.8-0.7,1.3-0.4
						c0.5,0.2,0.7,0.8,0.4,1.3L21.8,46C21.4,46.8,20.5,47.4,19.6,47.4z"/>
				</g>
				<g>
					<path class="st27" d="M20.6,31.5l11.3,17.9c0,0,0.1,0.1,0.1,0L64.6,4c0.1-0.1,0-0.2-0.1-0.1L20.6,31.4
						C20.6,31.4,20.6,31.4,20.6,31.5z"/>
					<path class="st26" d="M32,50.4C32,50.4,32,50.4,32,50.4c-0.4,0-0.7-0.2-0.9-0.5L19.7,32c0,0,0,0,0,0c-0.1-0.2-0.2-0.6-0.1-0.8
						c0.1-0.3,0.3-0.5,0.5-0.7L64,3.1c0.4-0.3,1-0.2,1.3,0.2c0.3,0.4,0.4,0.9,0.1,1.4L32.9,50C32.7,50.2,32.3,50.4,32,50.4z
						 M31.3,48.8C31.3,48.8,31.3,48.8,31.3,48.8L31.3,48.8z M21.9,31.7l10.1,16L61.1,7.2L21.9,31.7z M21.4,31L21.4,31
						C21.4,31,21.4,31,21.4,31L21.4,31z"/>
				</g>
				<g>
					<path class="st27" d="M18,27.7c0,0-16.9-5.6-16.9-5.6c-0.1,0-0.1-0.2,0-0.2L63.6,1c0,0,0,0,0,0L18,27.7z"/>
					<path class="st26" d="M18.1,28.7c-0.3,0-1-0.2-3.1-0.9c-1.6-0.5-3.7-1.2-5.8-1.9L0.8,23C0.3,22.8,0,22.4,0,21.9
						c0-0.5,0.3-0.9,0.8-1.1L63.3,0.1c0.5-0.2,1,0.1,1.2,0.5c0.2,0.5,0,1-0.4,1.3L18.5,28.5c0,0,0,0,0,0
						C18.3,28.6,18.2,28.7,18.1,28.7z M18,27.7L18,27.7L18,27.7z M3.9,21.9c5.6,1.9,12.3,4.1,14,4.7L55,4.9L3.9,21.9z"/>
				</g>
				<g>
					<g>
						<path class="st28" d="M28.9,53.9l0.5,7.5c0,0.7,0.8,1.1,1.4,0.7l7.9-5c0.7-0.4,0.5-1.4-0.2-1.7L30.1,53
							C29.5,52.8,28.9,53.3,28.9,53.9z"/>
						<path class="st26" d="M30.4,62.9c-0.2,0-0.5-0.1-0.7-0.2c-0.5-0.3-0.8-0.7-0.9-1.3L28.2,54c0-0.5,0.2-1,0.6-1.3
							c0.4-0.3,0.9-0.4,1.4-0.3l8.4,2.5c0.6,0.2,1,0.7,1.1,1.3c0.1,0.6-0.2,1.2-0.7,1.6l-7.9,5C30.9,62.8,30.6,62.9,30.4,62.9z
							 M29.8,53.6c-0.1,0-0.1,0-0.2,0.1c0,0-0.1,0.1-0.1,0.2l0,0l0.5,7.5c0,0.1,0.1,0.2,0.1,0.2c0.1,0,0.2,0.1,0.3,0l7.9-5
							c0.1-0.1,0.1-0.2,0.1-0.3c0-0.1,0-0.2-0.2-0.2L29.8,53.6C29.9,53.6,29.9,53.6,29.8,53.6z"/>
					</g>
					<path class="st26" d="M22.1,59.2c-1.1,0-2.1-0.4-2.9-1.1c-0.9-0.8-1.4-1.9-1.4-3.1v-7.7c0-0.5,0.4-1,1-1c0.5,0,1,0.4,1,1V55
						c0,0.6,0.3,1.2,0.7,1.6c0.5,0.4,1.1,0.6,1.7,0.6l6.2-0.5c0.5,0,1,0.4,1.1,0.9c0,0.5-0.4,1-0.9,1.1l-6.2,0.5
						C22.3,59.2,22.2,59.2,22.1,59.2z"/>
					<g>
						<path class="st28" d="M30.8,55.9l0.2,2.8c0,0.3,0.3,0.4,0.6,0.3l3.3-1.9c0.3-0.2,0.2-0.6-0.1-0.6l-3.5-0.9
							C31,55.4,30.8,55.6,30.8,55.9z"/>
						<path class="st26" d="M31.4,59.4c-0.1,0-0.3,0-0.4-0.1c-0.2-0.1-0.4-0.4-0.4-0.6l-0.2-2.8l0,0c0-0.2,0.1-0.5,0.3-0.6
							c0.2-0.2,0.5-0.2,0.7-0.2l3.5,0.9c0.3,0.1,0.5,0.3,0.6,0.6c0,0.3-0.1,0.6-0.4,0.8l-3.3,1.9C31.7,59.4,31.5,59.4,31.4,59.4z
							 M31.2,55.9l0.2,2.7l3.1-1.8L31.2,55.9z M31.2,55.8L31.2,55.8L31.2,55.8L31.2,55.8z"/>
					</g>
				</g>
			</g>
		</g>
	</g>
</g>
</svg>
