<svg width="23" height="18" viewBox="0 0 23 18" fill="none" xmlns="http://www.w3.org/2000/svg">
<path fill-rule="evenodd" clip-rule="evenodd" d="M12.6432 7.18305C12.6432 9.25788 10.7302 11.3661 7.82162 11.3661C4.91307 11.3661 3 9.25788 3 7.18305C3 5.10823 4.91307 3 7.82162 3C10.7302 3 12.6432 5.10823 12.6432 7.18305ZM13.3451 12.2689C11.9303 13.5648 9.97783 14.3661 7.82162 14.3661C3.50186 14.3661 0 11.1501 0 7.18305C0 3.21596 3.50186 0 7.82162 0C12.1414 0 15.6432 3.21596 15.6432 7.18305C15.6432 8.11836 15.4486 9.01191 15.0944 9.83141L21.6042 14.3863C22.283 14.8612 22.4482 15.7965 21.9733 16.4753C21.4983 17.154 20.5631 17.3193 19.8843 16.8443L13.3451 12.2689Z" fill="#663399"/>
</svg>
