<?xml version="1.0" encoding="utf-8"?>
<!-- Generator: Adobe Illustrator 27.0.0, SVG Export Plug-In . SVG Version: 6.00 Build 0)  -->
<svg version="1.1" xmlns="http://www.w3.org/2000/svg" xmlns:xlink="http://www.w3.org/1999/xlink" x="0px" y="0px"
	 viewBox="0 0 459.2 187.1" style="enable-background:new 0 0 459.2 187.1;" xml:space="preserve">
<style type="text/css">
	.st0{fill:#E52327;}
	.st1{fill:#EB6026;}
	.st2{fill:#F59D21;}
</style>
<g id="Calque_1">
</g>
<g id="Calque_2">
	<g>
		<path class="st0" d="M200.6,100.1c0-19.4,9-36.6,23-47.9c-10.5-8.4-23.8-13.5-38.4-13.5c-33.9,0-61.4,27.5-61.4,61.4
			s27.5,61.4,61.4,61.4c14.5,0,27.9-5.1,38.4-13.5C209.6,136.7,200.6,119.4,200.6,100.1z"/>
		<path class="st1" d="M200.6,100.1c0,19.4,9,36.6,23,47.9c14-11.3,23-28.5,23-47.9s-9-36.6-23-47.9
			C209.6,63.4,200.6,80.7,200.6,100.1z"/>
		<path class="st2" d="M262,38.7c-14.5,0-27.9,5.1-38.4,13.5c14,11.3,23,28.5,23,47.9s-9,36.6-23,47.9c10.5,8.4,23.8,13.5,38.4,13.5
			c33.9,0,61.4-27.5,61.4-61.4S295.9,38.7,262,38.7z"/>
	</g>
</g>
</svg>
